<?xml version="1.0" encoding="UTF-8" standalone="no"?>
<!DOCTYPE svg PUBLIC "-//W3C//DTD SVG 1.1//EN"
 "http://www.w3.org/Graphics/SVG/1.1/DTD/svg11.dtd">
<!-- Generated by graphviz version 2.43.0 (0)
 -->
<!-- Title: erd Pages: 1 -->
<svg width="1413pt" height="831pt"
 viewBox="0.00 0.00 1413.00 830.50" xmlns="http://www.w3.org/2000/svg" xmlns:xlink="http://www.w3.org/1999/xlink">
<g id="graph0" class="graph" transform="scale(1 1) rotate(0) translate(4 826.5)">
<title>erd</title>
<polygon fill="white" stroke="transparent" points="-4,4 -4,-826.5 1409,-826.5 1409,4 -4,4"/>
<!-- KUNDE -->
<g id="node1" class="node">
<title>KUNDE</title>
<polygon fill="#ffdd99" stroke="transparent" points="8,-379 8,-404 270,-404 270,-379 8,-379"/>
<polygon fill="none" stroke="black" points="8,-379 8,-404 270,-404 270,-379 8,-379"/>
<text text-anchor="start" x="114.5" y="-388.8" font-family="Helvetica,Arial,sans-serif" font-weight="bold" font-size="14.00">KUNDE</text>
<polygon fill="none" stroke="black" points="8,-354 8,-379 270,-379 270,-354 8,-354"/>
<text text-anchor="start" x="13" y="-363.8" font-family="Helvetica,Arial,sans-serif" text-decoration="underline" font-size="14.00">PK ID_Kunde</text>
<text text-anchor="start" x="95" y="-363.8" font-family="Helvetica,Arial,sans-serif" font-size="14.00"> INT (AUTO_INCREMENT)</text>
<polygon fill="none" stroke="black" points="8,-329 8,-354 270,-354 270,-329 8,-329"/>
<text text-anchor="start" x="13" y="-337.8" font-family="Helvetica,Arial,sans-serif" font-size="14.00">Kundenname VARCHAR(50) NOT NULL</text>
<polygon fill="none" stroke="black" points="8,-304 8,-329 270,-329 270,-304 8,-304"/>
<text text-anchor="start" x="13" y="-312.8" font-family="Helvetica,Arial,sans-serif" font-size="14.00">Kundennummer INT UNIQUE NOT NULL</text>
<polygon fill="none" stroke="black" points="8,-279 8,-304 270,-304 270,-279 8,-279"/>
<text text-anchor="start" x="13" y="-287.8" font-family="Helvetica,Arial,sans-serif" font-size="14.00">Versandzone VARCHAR(20) DEFAULT</text>
</g>
<!-- AUFTRAG -->
<g id="node4" class="node">
<title>AUFTRAG</title>
<polygon fill="#ffdd99" stroke="transparent" points="353.5,-417 353.5,-442 623.5,-442 623.5,-417 353.5,-417"/>
<polygon fill="none" stroke="black" points="353.5,-417 353.5,-442 623.5,-442 623.5,-417 353.5,-417"/>
<text text-anchor="start" x="455" y="-426.8" font-family="Helvetica,Arial,sans-serif" font-weight="bold" font-size="14.00">AUFTRAG</text>
<polygon fill="none" stroke="black" points="353.5,-392 353.5,-417 623.5,-417 623.5,-392 353.5,-392"/>
<text text-anchor="start" x="358.5" y="-401.8" font-family="Helvetica,Arial,sans-serif" text-decoration="underline" font-size="14.00">PK ID_Angebot</text>
<text text-anchor="start" x="452.5" y="-401.8" font-family="Helvetica,Arial,sans-serif" font-size="14.00"> INT (AUTO_INCREMENT)</text>
<polygon fill="none" stroke="black" points="353.5,-367 353.5,-392 623.5,-392 623.5,-367 353.5,-367"/>
<text text-anchor="start" x="358.5" y="-375.8" font-family="Helvetica,Arial,sans-serif" font-size="14.00">Angebot VARCHAR(50) NOT NULL</text>
<polygon fill="none" stroke="black" points="353.5,-342 353.5,-367 623.5,-367 623.5,-342 353.5,-342"/>
<text text-anchor="start" x="358.5" y="-350.8" font-family="Helvetica,Arial,sans-serif" font-size="14.00">Date DATETIME NOT NULL</text>
<polygon fill="none" stroke="black" points="353.5,-317 353.5,-342 623.5,-342 623.5,-317 353.5,-317"/>
<text text-anchor="start" x="358.5" y="-325.8" font-family="Helvetica,Arial,sans-serif" font-size="14.00">Ges_Preis FLOAT (CHECK &gt;= 0)</text>
<polygon fill="none" stroke="black" points="353.5,-292 353.5,-317 623.5,-317 623.5,-292 353.5,-292"/>
<text text-anchor="start" x="358.5" y="-300.8" font-family="Helvetica,Arial,sans-serif" font-size="14.00">Ges_Zeit TIME</text>
<polygon fill="none" stroke="black" points="353.5,-267 353.5,-292 623.5,-292 623.5,-267 353.5,-267"/>
<text text-anchor="start" x="358.5" y="-275.8" font-family="Helvetica,Arial,sans-serif" font-size="14.00">ErstelltVon VARCHAR(50)</text>
<polygon fill="none" stroke="black" points="353.5,-242 353.5,-267 623.5,-267 623.5,-242 353.5,-242"/>
<text text-anchor="start" x="358.5" y="-250.8" font-family="Helvetica,Arial,sans-serif" font-size="14.00">FK Kunde_ID INT NOT NULL</text>
</g>
<!-- KUNDE&#45;&gt;AUFTRAG -->
<g id="edge1" class="edge">
<title>KUNDE&#45;&gt;AUFTRAG</title>
<path fill="none" stroke="black" d="M280.63,-342C301.3,-342 322.62,-342 343.36,-342"/>
<polygon fill="black" stroke="black" points="271.38,-347 271.38,-337 273.38,-337 273.38,-347 271.38,-347"/>
<polyline fill="none" stroke="black" points="270.38,-342 275.38,-342 "/>
<polygon fill="black" stroke="black" points="276.38,-347 276.38,-337 278.38,-337 278.38,-347 276.38,-347"/>
<polyline fill="none" stroke="black" points="275.38,-342 280.38,-342 "/>
<polygon fill="black" stroke="black" points="343.49,-342 353.49,-346.5 348.49,-342 353.49,-342 353.49,-342 353.49,-342 348.49,-342 353.49,-337.5 343.49,-342 343.49,-342"/>
</g>
<!-- WERKSTOFF -->
<g id="node2" class="node">
<title>WERKSTOFF</title>
<polygon fill="#d3d3d3" stroke="transparent" points="1,-150 1,-175 277,-175 277,-150 1,-150"/>
<polygon fill="none" stroke="black" points="1,-150 1,-175 277,-175 277,-150 1,-150"/>
<text text-anchor="start" x="95" y="-159.8" font-family="Helvetica,Arial,sans-serif" font-weight="bold" font-size="14.00">WERKSTOFF</text>
<polygon fill="none" stroke="black" points="1,-125 1,-150 277,-150 277,-125 1,-125"/>
<text text-anchor="start" x="6" y="-134.8" font-family="Helvetica,Arial,sans-serif" text-decoration="underline" font-size="14.00">PK ID_Werkstoff</text>
<text text-anchor="start" x="106" y="-134.8" font-family="Helvetica,Arial,sans-serif" font-size="14.00"> INT (AUTO_INCREMENT)</text>
<polygon fill="none" stroke="black" points="1,-100 1,-125 277,-125 277,-100 1,-100"/>
<text text-anchor="start" x="6" y="-108.8" font-family="Helvetica,Arial,sans-serif" font-size="14.00">Werkstoff VARCHAR(25) NOT NULL</text>
<polygon fill="none" stroke="black" points="1,-75 1,-100 277,-100 277,-75 1,-75"/>
<text text-anchor="start" x="6" y="-83.8" font-family="Helvetica,Arial,sans-serif" font-size="14.00">Werkstofftyp VARCHAR(25) NOT NULL</text>
<polygon fill="none" stroke="black" points="1,-50 1,-75 277,-75 277,-50 1,-50"/>
<text text-anchor="start" x="6" y="-58.8" font-family="Helvetica,Arial,sans-serif" font-size="14.00">Werkstoffspreis FLOAT (CHECK &gt;= 0)</text>
<polygon fill="none" stroke="black" points="1,-25 1,-50 277,-50 277,-25 1,-25"/>
<text text-anchor="start" x="6" y="-33.8" font-family="Helvetica,Arial,sans-serif" font-size="14.00">Dichte FLOAT (CHECK &gt; 0)</text>
</g>
<!-- TAFELN -->
<g id="node3" class="node">
<title>TAFELN</title>
<polygon fill="#d3d3d3" stroke="transparent" points="364.5,-175 364.5,-200 612.5,-200 612.5,-175 364.5,-175"/>
<polygon fill="none" stroke="black" points="364.5,-175 364.5,-200 612.5,-200 612.5,-175 364.5,-175"/>
<text text-anchor="start" x="462" y="-184.8" font-family="Helvetica,Arial,sans-serif" font-weight="bold" font-size="14.00">TAFELN</text>
<polygon fill="none" stroke="black" points="364.5,-150 364.5,-175 612.5,-175 612.5,-150 364.5,-150"/>
<text text-anchor="start" x="369.5" y="-159.8" font-family="Helvetica,Arial,sans-serif" text-decoration="underline" font-size="14.00">PK ID_Tafel</text>
<text text-anchor="start" x="441.5" y="-159.8" font-family="Helvetica,Arial,sans-serif" font-size="14.00"> INT (AUTO_INCREMENT)</text>
<polygon fill="none" stroke="black" points="364.5,-125 364.5,-150 612.5,-150 612.5,-125 364.5,-125"/>
<text text-anchor="start" x="369.5" y="-133.8" font-family="Helvetica,Arial,sans-serif" font-size="14.00">TafelLänge INT NOT NULL</text>
<polygon fill="none" stroke="black" points="364.5,-100 364.5,-125 612.5,-125 612.5,-100 364.5,-100"/>
<text text-anchor="start" x="369.5" y="-108.8" font-family="Helvetica,Arial,sans-serif" font-size="14.00">TafelBreite INT NOT NULL</text>
<polygon fill="none" stroke="black" points="364.5,-75 364.5,-100 612.5,-100 612.5,-75 364.5,-75"/>
<text text-anchor="start" x="369.5" y="-83.8" font-family="Helvetica,Arial,sans-serif" font-size="14.00">Dicke INT NOT NULL</text>
<polygon fill="none" stroke="black" points="364.5,-50 364.5,-75 612.5,-75 612.5,-50 364.5,-50"/>
<text text-anchor="start" x="369.5" y="-58.8" font-family="Helvetica,Arial,sans-serif" font-size="14.00">Einkauf_Kg FLOAT</text>
<polygon fill="none" stroke="black" points="364.5,-25 364.5,-50 612.5,-50 612.5,-25 364.5,-25"/>
<text text-anchor="start" x="369.5" y="-33.8" font-family="Helvetica,Arial,sans-serif" font-size="14.00">Gedreht FLOAT</text>
<polygon fill="none" stroke="black" points="364.5,0 364.5,-25 612.5,-25 612.5,0 364.5,0"/>
<text text-anchor="start" x="369.5" y="-8.8" font-family="Helvetica,Arial,sans-serif" font-size="14.00">FK Werkstoff_ID INT NOT NULL</text>
</g>
<!-- WERKSTOFF&#45;&gt;TAFELN -->
<g id="edge2" class="edge">
<title>WERKSTOFF&#45;&gt;TAFELN</title>
<path fill="none" stroke="black" d="M287.5,-100C309.62,-100 332.31,-100 354.12,-100"/>
<polygon fill="black" stroke="black" points="278.34,-105 278.34,-95 280.34,-95 280.34,-105 278.34,-105"/>
<polyline fill="none" stroke="black" points="277.34,-100 282.34,-100 "/>
<polygon fill="black" stroke="black" points="283.34,-105 283.34,-95 285.34,-95 285.34,-105 283.34,-105"/>
<polyline fill="none" stroke="black" points="282.34,-100 287.34,-100 "/>
<polygon fill="black" stroke="black" points="354.4,-100 364.4,-104.5 359.4,-100 364.4,-100 364.4,-100 364.4,-100 359.4,-100 364.4,-95.5 354.4,-100 354.4,-100"/>
</g>
<!-- ARTIKEL -->
<g id="node8" class="node">
<title>ARTIKEL</title>
<polygon fill="#e6ccff" stroke="transparent" points="699,-554 699,-579 1027,-579 1027,-554 699,-554"/>
<polygon fill="none" stroke="black" points="699,-554 699,-579 1027,-579 1027,-554 699,-554"/>
<text text-anchor="start" x="833.5" y="-563.8" font-family="Helvetica,Arial,sans-serif" font-weight="bold" font-size="14.00">ARTIKEL</text>
<polygon fill="none" stroke="black" points="699,-529 699,-554 1027,-554 1027,-529 699,-529"/>
<text text-anchor="start" x="704" y="-538.8" font-family="Helvetica,Arial,sans-serif" text-decoration="underline" font-size="14.00">PK ID_Artikel</text>
<text text-anchor="start" x="785" y="-538.8" font-family="Helvetica,Arial,sans-serif" font-size="14.00"> INT (AUTO_INCREMENT)</text>
<polygon fill="none" stroke="black" points="699,-504 699,-529 1027,-529 1027,-504 699,-504"/>
<text text-anchor="start" x="704" y="-512.8" font-family="Helvetica,Arial,sans-serif" font-size="14.00">Artikelnummer VARCHAR(100) UNIQUE NOT NULL</text>
<polygon fill="none" stroke="black" points="699,-479 699,-504 1027,-504 1027,-479 699,-479"/>
<text text-anchor="start" x="704" y="-487.8" font-family="Helvetica,Arial,sans-serif" font-size="14.00">Pos INT</text>
<polygon fill="none" stroke="black" points="699,-454 699,-479 1027,-479 1027,-454 699,-454"/>
<text text-anchor="start" x="704" y="-462.8" font-family="Helvetica,Arial,sans-serif" font-size="14.00">BenötigteTafeln INT</text>
<polygon fill="none" stroke="black" points="699,-429 699,-454 1027,-454 1027,-429 699,-429"/>
<text text-anchor="start" x="704" y="-437.8" font-family="Helvetica,Arial,sans-serif" font-size="14.00">Menge INT (CHECK &gt; 0)</text>
<polygon fill="none" stroke="black" points="699,-404 699,-429 1027,-429 1027,-404 699,-404"/>
<text text-anchor="start" x="704" y="-412.8" font-family="Helvetica,Arial,sans-serif" font-size="14.00">Artikeltext VARCHAR(100)</text>
<polygon fill="none" stroke="black" points="699,-379 699,-404 1027,-404 1027,-379 699,-379"/>
<text text-anchor="start" x="704" y="-387.8" font-family="Helvetica,Arial,sans-serif" font-size="14.00">Stückpreis FLOAT (CHECK &gt;= 0)</text>
<polygon fill="none" stroke="black" points="699,-354 699,-379 1027,-379 1027,-354 699,-354"/>
<text text-anchor="start" x="704" y="-362.8" font-family="Helvetica,Arial,sans-serif" font-size="14.00">Ben_Fläche FLOAT</text>
<polygon fill="none" stroke="black" points="699,-329 699,-354 1027,-354 1027,-329 699,-329"/>
<text text-anchor="start" x="704" y="-337.8" font-family="Helvetica,Arial,sans-serif" font-size="14.00">Gewicht FLOAT</text>
<polygon fill="none" stroke="black" points="699,-304 699,-329 1027,-329 1027,-304 699,-304"/>
<text text-anchor="start" x="704" y="-312.8" font-family="Helvetica,Arial,sans-serif" font-size="14.00">Umfang INT</text>
<polygon fill="none" stroke="black" points="699,-279 699,-304 1027,-304 1027,-279 699,-279"/>
<text text-anchor="start" x="704" y="-287.8" font-family="Helvetica,Arial,sans-serif" font-size="14.00">Länge INT</text>
<polygon fill="none" stroke="black" points="699,-254 699,-279 1027,-279 1027,-254 699,-254"/>
<text text-anchor="start" x="704" y="-262.8" font-family="Helvetica,Arial,sans-serif" font-size="14.00">Breite INT</text>
<polygon fill="none" stroke="black" points="699,-229 699,-254 1027,-254 1027,-229 699,-229"/>
<text text-anchor="start" x="704" y="-237.8" font-family="Helvetica,Arial,sans-serif" font-size="14.00">Symmetrie INT</text>
<polygon fill="none" stroke="black" points="699,-204 699,-229 1027,-229 1027,-204 699,-204"/>
<text text-anchor="start" x="704" y="-212.8" font-family="Helvetica,Arial,sans-serif" font-size="14.00">Bild VARCHAR(255)</text>
<polygon fill="none" stroke="black" points="699,-179 699,-204 1027,-204 1027,-179 699,-179"/>
<text text-anchor="start" x="704" y="-187.8" font-family="Helvetica,Arial,sans-serif" font-size="14.00">Kommentar TEXT</text>
<polygon fill="none" stroke="black" points="699,-154 699,-179 1027,-179 1027,-154 699,-154"/>
<text text-anchor="start" x="704" y="-162.8" font-family="Helvetica,Arial,sans-serif" font-size="14.00">Params VARCHAR(100)</text>
<polygon fill="none" stroke="black" points="699,-129 699,-154 1027,-154 1027,-129 699,-129"/>
<text text-anchor="start" x="704" y="-137.8" font-family="Helvetica,Arial,sans-serif" font-size="14.00">FK Angebot_ID INT NOT NULL</text>
<polygon fill="none" stroke="black" points="699,-104 699,-129 1027,-129 1027,-104 699,-104"/>
<text text-anchor="start" x="704" y="-112.8" font-family="Helvetica,Arial,sans-serif" font-size="14.00">FK Tafel_ID INT NOT NULL</text>
</g>
<!-- TAFELN&#45;&gt;ARTIKEL -->
<g id="edge3" class="edge">
<title>TAFELN&#45;&gt;ARTIKEL</title>
<path fill="none" stroke="black" d="M620.99,-185.43C643.44,-200.01 667.05,-215.35 690.36,-230.49"/>
<polygon fill="black" stroke="black" points="610.62,-184.65 616.07,-176.26 617.74,-177.35 612.29,-185.74 610.62,-184.65"/>
<polyline fill="none" stroke="black" points="612.5,-179.91 616.7,-182.63 "/>
<polygon fill="black" stroke="black" points="614.81,-187.37 620.26,-178.99 621.94,-180.08 616.49,-188.46 614.81,-187.37"/>
<polyline fill="none" stroke="black" points="616.7,-182.63 620.89,-185.36 "/>
<polygon fill="black" stroke="black" points="690.54,-230.61 696.48,-239.83 694.74,-233.33 698.93,-236.06 698.93,-236.06 698.93,-236.06 694.74,-233.33 701.38,-232.28 690.54,-230.61 690.54,-230.61"/>
</g>
<!-- ARTIKEL_TAFELN_MM -->
<g id="node10" class="node">
<title>ARTIKEL_TAFELN_MM</title>
<polygon fill="#e6ccff" stroke="transparent" points="1130,-261 1130,-286 1338,-286 1338,-261 1130,-261"/>
<polygon fill="none" stroke="black" points="1130,-261 1130,-286 1338,-286 1338,-261 1130,-261"/>
<text text-anchor="start" x="1137.5" y="-270.8" font-family="Helvetica,Arial,sans-serif" font-weight="bold" font-size="14.00">ARTIKEL_TAFELN_MM (m:m)</text>
<polygon fill="none" stroke="black" points="1130,-236 1130,-261 1338,-261 1338,-236 1130,-236"/>
<text text-anchor="start" x="1135" y="-245.8" font-family="Helvetica,Arial,sans-serif" text-decoration="underline" font-size="14.00">PK,FK Artikel_ID</text>
<text text-anchor="start" x="1236" y="-245.8" font-family="Helvetica,Arial,sans-serif" font-size="14.00"> INT NOT NULL</text>
<polygon fill="none" stroke="black" points="1130,-211 1130,-236 1338,-236 1338,-211 1130,-211"/>
<text text-anchor="start" x="1135" y="-220.8" font-family="Helvetica,Arial,sans-serif" text-decoration="underline" font-size="14.00">PK,FK Tafel_ID</text>
<text text-anchor="start" x="1228" y="-220.8" font-family="Helvetica,Arial,sans-serif" font-size="14.00"> INT NOT NULL</text>
</g>
<!-- TAFELN&#45;&gt;ARTIKEL_TAFELN_MM -->
<g id="edge10" class="edge">
<title>TAFELN&#45;&gt;ARTIKEL_TAFELN_MM</title>
<path fill="none" stroke="black" d="M622.46,-75.27C733.57,-60.08 894.62,-50.99 1027,-95 1091.35,-116.4 1151.85,-166.61 1190.42,-203.91"/>
<polygon fill="black" stroke="black" points="614.23,-81.47 612.84,-71.57 614.82,-71.29 616.21,-81.19 614.23,-81.47"/>
<polyline fill="none" stroke="black" points="612.54,-76.66 617.49,-75.96 "/>
<polygon fill="black" stroke="black" points="619.18,-80.78 617.79,-70.87 619.77,-70.6 621.16,-80.5 619.18,-80.78"/>
<polyline fill="none" stroke="black" points="617.49,-75.96 622.45,-75.27 "/>
<polygon fill="black" stroke="black" points="1190.7,-204.19 1194.69,-214.4 1194.27,-207.69 1197.84,-211.19 1197.84,-211.19 1197.84,-211.19 1194.27,-207.69 1200.99,-207.98 1190.7,-204.19 1190.7,-204.19"/>
</g>
<!-- AUFTRAG&#45;&gt;ARTIKEL -->
<g id="edge4" class="edge">
<title>AUFTRAG&#45;&gt;ARTIKEL</title>
<path fill="none" stroke="black" d="M633.79,-342C651.79,-342 670.34,-342 688.72,-342"/>
<polygon fill="black" stroke="black" points="624.72,-347 624.72,-337 626.72,-337 626.72,-347 624.72,-347"/>
<polyline fill="none" stroke="black" points="623.72,-342 628.72,-342 "/>
<polygon fill="black" stroke="black" points="629.72,-347 629.72,-337 631.72,-337 631.72,-347 629.72,-347"/>
<polyline fill="none" stroke="black" points="628.72,-342 633.72,-342 "/>
<polygon fill="black" stroke="black" points="688.92,-342 698.92,-346.5 693.92,-342 698.92,-342 698.92,-342 698.92,-342 693.92,-342 698.92,-337.5 688.92,-342 688.92,-342"/>
</g>
<!-- Maschine -->
<g id="node5" class="node">
<title>Maschine</title>
<polygon fill="#b3d9ff" stroke="transparent" points="0,-785 0,-810 278,-810 278,-785 0,-785"/>
<polygon fill="none" stroke="black" points="0,-785 0,-810 278,-810 278,-785 0,-785"/>
<text text-anchor="start" x="107.5" y="-794.8" font-family="Helvetica,Arial,sans-serif" font-weight="bold" font-size="14.00">Maschine</text>
<polygon fill="none" stroke="black" points="0,-760 0,-785 278,-785 278,-760 0,-760"/>
<text text-anchor="start" x="5" y="-769.8" font-family="Helvetica,Arial,sans-serif" text-decoration="underline" font-size="14.00">PK ID_Maschine</text>
<text text-anchor="start" x="107" y="-769.8" font-family="Helvetica,Arial,sans-serif" font-size="14.00"> INT (AUTO_INCREMENT)</text>
<polygon fill="none" stroke="black" points="0,-735 0,-760 278,-760 278,-735 0,-735"/>
<text text-anchor="start" x="5" y="-743.8" font-family="Helvetica,Arial,sans-serif" font-size="14.00">Maschinenname VARCHAR(50) NOT NULL</text>
<polygon fill="none" stroke="black" points="0,-710 0,-735 278,-735 278,-710 0,-710"/>
<text text-anchor="start" x="5" y="-718.8" font-family="Helvetica,Arial,sans-serif" font-size="14.00">Bearbeitungstyp VARCHAR(50) NOT NULL</text>
<polygon fill="none" stroke="black" points="0,-685 0,-710 278,-710 278,-685 0,-685"/>
<text text-anchor="start" x="5" y="-693.8" font-family="Helvetica,Arial,sans-serif" font-size="14.00">Verschnitt FLOAT</text>
<polygon fill="none" stroke="black" points="0,-660 0,-685 278,-685 278,-660 0,-660"/>
<text text-anchor="start" x="5" y="-668.8" font-family="Helvetica,Arial,sans-serif" font-size="14.00">Vorschub VARCHAR(5)</text>
<polygon fill="none" stroke="black" points="0,-635 0,-660 278,-660 278,-635 0,-635"/>
<text text-anchor="start" x="5" y="-643.8" font-family="Helvetica,Arial,sans-serif" font-size="14.00">AbdampfenVorschub INT</text>
<polygon fill="none" stroke="black" points="0,-610 0,-635 278,-635 278,-610 0,-610"/>
<text text-anchor="start" x="5" y="-618.8" font-family="Helvetica,Arial,sans-serif" font-size="14.00">Abdampfen INT</text>
</g>
<!-- ARBEITSSCHRITTKENNUNG -->
<g id="node6" class="node">
<title>ARBEITSSCHRITTKENNUNG</title>
<polygon fill="#99e699" stroke="transparent" points="314.5,-747 314.5,-772 663.5,-772 663.5,-747 314.5,-747"/>
<polygon fill="none" stroke="black" points="314.5,-747 314.5,-772 663.5,-772 663.5,-747 314.5,-747"/>
<text text-anchor="start" x="395.5" y="-756.8" font-family="Helvetica,Arial,sans-serif" font-weight="bold" font-size="14.00">ARBEITSSCHRITTKENNUNG</text>
<polygon fill="none" stroke="black" points="314.5,-722 314.5,-747 663.5,-747 663.5,-722 314.5,-722"/>
<text text-anchor="start" x="319.5" y="-731.8" font-family="Helvetica,Arial,sans-serif" text-decoration="underline" font-size="14.00">PK ID_Arbeitsschrittkennung</text>
<text text-anchor="start" x="492.5" y="-731.8" font-family="Helvetica,Arial,sans-serif" font-size="14.00"> INT (AUTO_INCREMENT)</text>
<polygon fill="none" stroke="black" points="314.5,-697 314.5,-722 663.5,-722 663.5,-697 314.5,-697"/>
<text text-anchor="start" x="319.5" y="-705.8" font-family="Helvetica,Arial,sans-serif" font-size="14.00">Arbeitsschritt VARCHAR(50) NOT NULL</text>
<polygon fill="none" stroke="black" points="314.5,-672 314.5,-697 663.5,-697 663.5,-672 314.5,-672"/>
<text text-anchor="start" x="319.5" y="-680.8" font-family="Helvetica,Arial,sans-serif" font-size="14.00">Kuerzel VARCHAR(25) UNIQUE NOT NULL</text>
<polygon fill="none" stroke="black" points="314.5,-647 314.5,-672 663.5,-672 663.5,-647 314.5,-647"/>
<text text-anchor="start" x="319.5" y="-655.8" font-family="Helvetica,Arial,sans-serif" font-size="14.00">FK Maschine_ID INT (NULL, c:m)</text>
</g>
<!-- Maschine&#45;&gt;ARBEITSSCHRITTKENNUNG -->
<g id="edge5" class="edge">
<title>Maschine&#45;&gt;ARBEITSSCHRITTKENNUNG</title>
<path fill="none" stroke="black" d="M291.35,-710C295.45,-710 299.58,-710 303.71,-710"/>
<polygon fill="black" stroke="black" points="279.34,-715 279.34,-705 281.34,-705 281.34,-715 279.34,-715"/>
<polyline fill="none" stroke="black" points="278.34,-710 283.34,-710 "/>
<ellipse fill="none" stroke="black" cx="287.34" cy="-710" rx="4" ry="4"/>
<polygon fill="black" stroke="black" points="303.99,-710 313.99,-714.5 308.99,-710 313.99,-710 313.99,-710 313.99,-710 308.99,-710 313.99,-705.5 303.99,-710 303.99,-710"/>
</g>
<!-- ARBEITSSCHRITT -->
<g id="node7" class="node">
<title>ARBEITSSCHRITT</title>
<polygon fill="#99e699" stroke="transparent" points="715,-797 715,-822 1012,-822 1012,-797 715,-797"/>
<polygon fill="none" stroke="black" points="715,-797 715,-822 1012,-822 1012,-797 715,-797"/>
<text text-anchor="start" x="804.5" y="-806.8" font-family="Helvetica,Arial,sans-serif" font-weight="bold" font-size="14.00">ARBEITSSCHRITT</text>
<polygon fill="none" stroke="black" points="715,-772 715,-797 1012,-797 1012,-772 715,-772"/>
<text text-anchor="start" x="720" y="-781.8" font-family="Helvetica,Arial,sans-serif" text-decoration="underline" font-size="14.00">PK ID_Arbeitsschritt</text>
<text text-anchor="start" x="841" y="-781.8" font-family="Helvetica,Arial,sans-serif" font-size="14.00"> INT (AUTO_INCREMENT)</text>
<polygon fill="none" stroke="black" points="715,-747 715,-772 1012,-772 1012,-747 715,-747"/>
<text text-anchor="start" x="720" y="-755.8" font-family="Helvetica,Arial,sans-serif" font-size="14.00">Ruesten TIME</text>
<polygon fill="none" stroke="black" points="715,-722 715,-747 1012,-747 1012,-722 715,-722"/>
<text text-anchor="start" x="720" y="-730.8" font-family="Helvetica,Arial,sans-serif" font-size="14.00">Bearbeitungszeit TIME</text>
<polygon fill="none" stroke="black" points="715,-697 715,-722 1012,-722 1012,-697 715,-697"/>
<text text-anchor="start" x="720" y="-705.8" font-family="Helvetica,Arial,sans-serif" font-size="14.00">Gesamtzeit TIME</text>
<polygon fill="none" stroke="black" points="715,-672 715,-697 1012,-697 1012,-672 715,-672"/>
<text text-anchor="start" x="720" y="-680.8" font-family="Helvetica,Arial,sans-serif" font-size="14.00">Marge VARCHAR(5)</text>
<polygon fill="none" stroke="black" points="715,-647 715,-672 1012,-672 1012,-647 715,-647"/>
<text text-anchor="start" x="720" y="-655.8" font-family="Helvetica,Arial,sans-serif" font-size="14.00">StundensatzRuesten FLOAT</text>
<polygon fill="none" stroke="black" points="715,-622 715,-647 1012,-647 1012,-622 715,-622"/>
<text text-anchor="start" x="720" y="-630.8" font-family="Helvetica,Arial,sans-serif" font-size="14.00">StundensatzOperation FLOAT</text>
<polygon fill="none" stroke="black" points="715,-597 715,-622 1012,-622 1012,-597 715,-597"/>
<text text-anchor="start" x="720" y="-605.8" font-family="Helvetica,Arial,sans-serif" font-size="14.00">FK Arbeitsschrittkennung_ID INT NOT NULL</text>
</g>
<!-- ARBEITSSCHRITTKENNUNG&#45;&gt;ARBEITSSCHRITT -->
<g id="edge6" class="edge">
<title>ARBEITSSCHRITTKENNUNG&#45;&gt;ARBEITSSCHRITT</title>
<path fill="none" stroke="black" d="M673.22,-710C683.54,-710 693.88,-710 704.09,-710"/>
<polygon fill="black" stroke="black" points="664.21,-715 664.21,-705 666.21,-705 666.21,-715 664.21,-715"/>
<polyline fill="none" stroke="black" points="663.21,-710 668.21,-710 "/>
<polygon fill="black" stroke="black" points="669.21,-715 669.21,-705 671.21,-705 671.21,-715 669.21,-715"/>
<polyline fill="none" stroke="black" points="668.21,-710 673.21,-710 "/>
<polygon fill="black" stroke="black" points="704.27,-710 714.27,-714.5 709.27,-710 714.27,-710 714.27,-710 714.27,-710 709.27,-710 714.27,-705.5 704.27,-710 704.27,-710"/>
</g>
<!-- ARTIKEL_ARBEITSSCHRITT -->
<g id="node9" class="node">
<title>ARTIKEL_ARBEITSSCHRITT</title>
<polygon fill="#e6ccff" stroke="transparent" points="1063,-460 1063,-485 1405,-485 1405,-460 1063,-460"/>
<polygon fill="none" stroke="black" points="1063,-460 1063,-485 1405,-485 1405,-460 1063,-460"/>
<text text-anchor="start" x="1120.5" y="-469.8" font-family="Helvetica,Arial,sans-serif" font-weight="bold" font-size="14.00">ARTIKEL_ARBEITSSCHRITT (m:m)</text>
<polygon fill="none" stroke="black" points="1063,-435 1063,-460 1405,-460 1405,-435 1063,-435"/>
<text text-anchor="start" x="1068" y="-444.8" font-family="Helvetica,Arial,sans-serif" text-decoration="underline" font-size="14.00">PK ID_Artikel_Arbeitsschritt</text>
<text text-anchor="start" x="1234" y="-444.8" font-family="Helvetica,Arial,sans-serif" font-size="14.00"> INT (AUTO_INCREMENT)</text>
<polygon fill="none" stroke="black" points="1063,-410 1063,-435 1405,-435 1405,-410 1063,-410"/>
<text text-anchor="start" x="1068" y="-418.8" font-family="Helvetica,Arial,sans-serif" font-size="14.00">FK Artikel_ID INT NOT NULL</text>
<polygon fill="none" stroke="black" points="1063,-385 1063,-410 1405,-410 1405,-385 1063,-385"/>
<text text-anchor="start" x="1068" y="-393.8" font-family="Helvetica,Arial,sans-serif" font-size="14.00">FK Arbeitsschritt_ID INT NOT NULL</text>
</g>
<!-- ARBEITSSCHRITT&#45;&gt;ARTIKEL_ARBEITSSCHRITT -->
<g id="edge8" class="edge">
<title>ARBEITSSCHRITT&#45;&gt;ARTIKEL_ARBEITSSCHRITT</title>
<path fill="none" stroke="black" d="M1019.86,-593.85C1067.49,-558.35 1117.74,-520.9 1157.47,-491.29"/>
<polygon fill="black" stroke="black" points="1015.48,-603.34 1009.51,-595.32 1011.11,-594.13 1017.09,-602.15 1015.48,-603.34"/>
<polyline fill="none" stroke="black" points="1011.69,-599.93 1015.7,-596.94 "/>
<polygon fill="black" stroke="black" points="1019.49,-600.35 1013.52,-592.33 1015.12,-591.14 1021.1,-599.16 1019.49,-600.35"/>
<polyline fill="none" stroke="black" points="1015.7,-596.94 1019.71,-593.95 "/>
<polygon fill="black" stroke="black" points="1157.77,-491.07 1168.48,-488.7 1161.78,-488.08 1165.79,-485.09 1165.79,-485.09 1165.79,-485.09 1161.78,-488.08 1163.1,-481.48 1157.77,-491.07 1157.77,-491.07"/>
</g>
<!-- ARTIKEL&#45;&gt;ARTIKEL_ARBEITSSCHRITT -->
<g id="edge7" class="edge">
<title>ARTIKEL&#45;&gt;ARTIKEL_ARBEITSSCHRITT</title>
<path fill="none" stroke="black" d="M1036.95,-385.59C1042.36,-386.95 1047.78,-388.32 1053.2,-389.68"/>
<polygon fill="black" stroke="black" points="1026.94,-388.22 1029.38,-378.53 1031.32,-379.01 1028.88,-388.71 1026.94,-388.22"/>
<polyline fill="none" stroke="black" points="1027.19,-383.13 1032.04,-384.35 "/>
<polygon fill="black" stroke="black" points="1031.79,-389.44 1034.23,-379.75 1036.17,-380.24 1033.73,-389.93 1031.79,-389.44"/>
<polyline fill="none" stroke="black" points="1032.04,-384.35 1036.89,-385.57 "/>
<polygon fill="black" stroke="black" points="1053.25,-389.7 1061.84,-396.5 1058.09,-390.92 1062.94,-392.14 1062.94,-392.14 1062.94,-392.14 1058.09,-390.92 1064.04,-387.78 1053.25,-389.7 1053.25,-389.7"/>
</g>
<!-- ARTIKEL&#45;&gt;ARTIKEL_TAFELN_MM -->
<g id="edge9" class="edge">
<title>ARTIKEL&#45;&gt;ARTIKEL_TAFELN_MM</title>
<path fill="none" stroke="black" d="M1037.04,-298.39C1065.22,-291.29 1093.75,-284.09 1120.01,-277.48"/>
<polygon fill="black" stroke="black" points="1029.38,-305.47 1026.94,-295.78 1028.88,-295.29 1031.32,-304.99 1029.38,-305.47"/>
<polyline fill="none" stroke="black" points="1027.19,-300.87 1032.04,-299.65 "/>
<polygon fill="black" stroke="black" points="1034.23,-304.25 1031.79,-294.56 1033.73,-294.07 1036.17,-303.76 1034.23,-304.25"/>
<polyline fill="none" stroke="black" points="1032.04,-299.65 1036.89,-298.43 "/>
<polygon fill="black" stroke="black" points="1120.25,-277.42 1131.05,-279.34 1125.1,-276.19 1129.95,-274.97 1129.95,-274.97 1129.95,-274.97 1125.1,-276.19 1128.85,-270.61 1120.25,-277.42 1120.25,-277.42"/>
</g>
</g>
</svg>
