<?xml version="1.0" encoding="UTF-8" standalone="no"?>
<!DOCTYPE svg PUBLIC "-//W3C//DTD SVG 1.1//EN"
 "http://www.w3.org/Graphics/SVG/1.1/DTD/svg11.dtd">
<!-- Generated by graphviz version 2.43.0 (0)
 -->
<!-- Title: ConceptualDatabaseModel Pages: 1 -->
<svg width="1702pt" height="304pt"
 viewBox="0.00 0.00 1702.10 304.00" xmlns="http://www.w3.org/2000/svg" xmlns:xlink="http://www.w3.org/1999/xlink">
<g id="graph0" class="graph" transform="scale(1 1) rotate(0) translate(4 300)">
<title>ConceptualDatabaseModel</title>
<polygon fill="white" stroke="transparent" points="-4,4 -4,-300 1698.1,-300 1698.1,4 -4,4"/>
<!-- KUNDE -->
<g id="node1" class="node">
<title>KUNDE</title>
<polygon fill="lightblue" stroke="black" points="66,-156 0,-156 0,-120 66,-120 66,-156"/>
<text text-anchor="middle" x="33" y="-134.3" font-family="Helvetica,sans-Serif" font-size="14.00">KUNDE</text>
</g>
<!-- BESTELLT -->
<g id="node9" class="node">
<title>BESTELLT</title>
<polygon fill="lightyellow" stroke="black" points="174.5,-156 112,-138 174.5,-120 237.01,-138 174.5,-156"/>
<text text-anchor="middle" x="174.5" y="-134.3" font-family="Helvetica,sans-Serif" font-size="14.00">bestellt</text>
</g>
<!-- KUNDE&#45;&#45;BESTELLT -->
<g id="edge1" class="edge">
<title>KUNDE&#45;&#45;BESTELLT</title>
<path fill="none" stroke="black" d="M66,-138C79.68,-138 96.12,-138 111.99,-138"/>
<text text-anchor="middle" x="89" y="-141.8" font-family="Helvetica,sans-Serif" font-size="14.00">1</text>
</g>
<!-- WERKSTOFF -->
<g id="node2" class="node">
<title>WERKSTOFF</title>
<polygon fill="lightblue" stroke="black" points="898.01,-296 795.01,-296 795.01,-260 898.01,-260 898.01,-296"/>
<text text-anchor="middle" x="846.51" y="-274.3" font-family="Helvetica,sans-Serif" font-size="14.00">WERKSTOFF</text>
</g>
<!-- BESTEHT_AUS -->
<g id="node10" class="node">
<title>BESTEHT_AUS</title>
<polygon fill="lightyellow" stroke="black" points="1125.93,-296 1035.78,-278 1125.93,-260 1216.08,-278 1125.93,-296"/>
<text text-anchor="middle" x="1125.93" y="-274.3" font-family="Helvetica,sans-Serif" font-size="14.00">besteht aus</text>
</g>
<!-- WERKSTOFF&#45;&#45;BESTEHT_AUS -->
<g id="edge3" class="edge">
<title>WERKSTOFF&#45;&#45;BESTEHT_AUS</title>
<path fill="none" stroke="black" d="M898.07,-278C936.44,-278 990.17,-278 1035.71,-278"/>
<text text-anchor="middle" x="975.01" y="-281.8" font-family="Helvetica,sans-Serif" font-size="14.00">1</text>
</g>
<!-- TAFELN -->
<g id="node3" class="node">
<title>TAFELN</title>
<polygon fill="lightblue" stroke="black" points="1400.85,-222 1331.85,-222 1331.85,-186 1400.85,-186 1400.85,-222"/>
<text text-anchor="middle" x="1366.35" y="-200.3" font-family="Helvetica,sans-Serif" font-size="14.00">TAFELN</text>
</g>
<!-- HAUPT_MATERIAL -->
<g id="node16" class="node">
<title>HAUPT_MATERIAL</title>
<polygon fill="lightyellow" stroke="black" points="1587.48,-172 1480.73,-154 1587.48,-136 1694.22,-154 1587.48,-172"/>
<text text-anchor="middle" x="1587.48" y="-150.3" font-family="Helvetica,sans-Serif" font-size="14.00">Hauptmaterial</text>
</g>
<!-- TAFELN&#45;&#45;HAUPT_MATERIAL -->
<g id="edge15" class="edge">
<title>TAFELN&#45;&#45;HAUPT_MATERIAL</title>
<path fill="none" stroke="black" d="M1401.11,-196.3C1438.69,-187.72 1499.6,-173.82 1541.27,-164.32"/>
<text text-anchor="middle" x="1457.85" y="-187.8" font-family="Helvetica,sans-Serif" font-size="14.00">1</text>
</g>
<!-- AUFTRAG -->
<g id="node4" class="node">
<title>AUFTRAG</title>
<polygon fill="lightblue" stroke="black" points="364.51,-156 283.51,-156 283.51,-120 364.51,-120 364.51,-156"/>
<text text-anchor="middle" x="324.01" y="-134.3" font-family="Helvetica,sans-Serif" font-size="14.00">AUFTRAG</text>
</g>
<!-- ENTHAELT -->
<g id="node11" class="node">
<title>ENTHAELT</title>
<polygon fill="lightyellow" stroke="black" points="533.01,-156 473.01,-138 533.01,-120 593,-138 533.01,-156"/>
<text text-anchor="middle" x="533.01" y="-134.3" font-family="Helvetica,sans-Serif" font-size="14.00">enthält</text>
</g>
<!-- AUFTRAG&#45;&#45;ENTHAELT -->
<g id="edge5" class="edge">
<title>AUFTRAG&#45;&#45;ENTHAELT</title>
<path fill="none" stroke="black" d="M364.92,-138C395.58,-138 438.4,-138 473.02,-138"/>
<text text-anchor="middle" x="388.01" y="-141.8" font-family="Helvetica,sans-Serif" font-size="14.00">1</text>
</g>
<!-- MASCHINE -->
<g id="node5" class="node">
<title>MASCHINE</title>
<polygon fill="lightblue" stroke="black" points="365.01,-56 283.01,-56 283.01,-20 365.01,-20 365.01,-56"/>
<text text-anchor="middle" x="324.01" y="-34.3" font-family="Helvetica,sans-Serif" font-size="14.00">Maschine</text>
</g>
<!-- WIRD_BEARBEITET_AUF -->
<g id="node12" class="node">
<title>WIRD_BEARBEITET_AUF</title>
<polygon fill="lightyellow" stroke="black" points="533.01,-76 411.01,-38 533.01,0 655.01,-38 533.01,-76"/>
<text text-anchor="middle" x="533.01" y="-41.8" font-family="Helvetica,sans-Serif" font-size="14.00">wird bearbeitet</text>
<text text-anchor="middle" x="533.01" y="-26.8" font-family="Helvetica,sans-Serif" font-size="14.00">auf</text>
</g>
<!-- MASCHINE&#45;&#45;WIRD_BEARBEITET_AUF -->
<g id="edge7" class="edge">
<title>MASCHINE&#45;&#45;WIRD_BEARBEITET_AUF</title>
<path fill="none" stroke="black" d="M365.41,-38C378.82,-38 394.52,-38 410.82,-38"/>
<text text-anchor="middle" x="388.01" y="-41.8" font-family="Helvetica,sans-Serif" font-size="14.00">1</text>
</g>
<!-- ARBEITSSCHRITTKENNUNG -->
<g id="node6" class="node">
<title>ARBEITSSCHRITTKENNUNG</title>
<polygon fill="lightblue" stroke="black" points="950.01,-56 743.01,-56 743.01,-20 950.01,-20 950.01,-56"/>
<text text-anchor="middle" x="846.51" y="-34.3" font-family="Helvetica,sans-Serif" font-size="14.00">ARBEITSSCHRITTKENNUNG</text>
</g>
<!-- DEFINIERT -->
<g id="node13" class="node">
<title>DEFINIERT</title>
<polygon fill="lightyellow" stroke="black" points="1125.93,-56 1057.06,-38 1125.93,-20 1194.8,-38 1125.93,-56"/>
<text text-anchor="middle" x="1125.93" y="-34.3" font-family="Helvetica,sans-Serif" font-size="14.00">definiert</text>
</g>
<!-- ARBEITSSCHRITTKENNUNG&#45;&#45;DEFINIERT -->
<g id="edge9" class="edge">
<title>ARBEITSSCHRITTKENNUNG&#45;&#45;DEFINIERT</title>
<path fill="none" stroke="black" d="M950.02,-38C985.68,-38 1024.76,-38 1056.92,-38"/>
<text text-anchor="middle" x="975.01" y="-41.8" font-family="Helvetica,sans-Serif" font-size="14.00">1</text>
</g>
<!-- ARBEITSSCHRITT -->
<g id="node7" class="node">
<title>ARBEITSSCHRITT</title>
<polygon fill="lightblue" stroke="black" points="1434.85,-81 1297.85,-81 1297.85,-45 1434.85,-45 1434.85,-81"/>
<text text-anchor="middle" x="1366.35" y="-59.3" font-family="Helvetica,sans-Serif" font-size="14.00">ARBEITSSCHRITT</text>
</g>
<!-- ARTIKEL -->
<g id="node8" class="node">
<title>ARTIKEL</title>
<polygon fill="lightblue" stroke="black" points="883.51,-156 809.51,-156 809.51,-120 883.51,-120 883.51,-156"/>
<text text-anchor="middle" x="846.51" y="-134.3" font-family="Helvetica,sans-Serif" font-size="14.00">ARTIKEL</text>
</g>
<!-- HAT_ARBEITSSCHRITT -->
<g id="node14" class="node">
<title>HAT_ARBEITSSCHRITT</title>
<polygon fill="lightyellow" stroke="black" points="1125.93,-110 1000.08,-92 1125.93,-74 1251.78,-92 1125.93,-110"/>
<text text-anchor="middle" x="1125.93" y="-88.3" font-family="Helvetica,sans-Serif" font-size="14.00">hat Arbeitsschritt</text>
</g>
<!-- ARTIKEL&#45;&#45;HAT_ARBEITSSCHRITT -->
<g id="edge11" class="edge">
<title>ARTIKEL&#45;&#45;HAT_ARBEITSSCHRITT</title>
<path fill="none" stroke="black" d="M883.64,-128.02C907.44,-121.77 939.39,-113.97 968.01,-109 993.11,-104.64 1020.69,-101.2 1045.63,-98.59"/>
<text text-anchor="middle" x="975.01" y="-112.8" font-family="Helvetica,sans-Serif" font-size="14.00">m</text>
</g>
<!-- WIRD_GEFERTIGT_AUS -->
<g id="node15" class="node">
<title>WIRD_GEFERTIGT_AUS</title>
<polygon fill="lightyellow" stroke="black" points="1125.93,-242 1015.93,-204 1125.93,-166 1235.93,-204 1125.93,-242"/>
<text text-anchor="middle" x="1125.93" y="-207.8" font-family="Helvetica,sans-Serif" font-size="14.00">wird gefertigt</text>
<text text-anchor="middle" x="1125.93" y="-192.8" font-family="Helvetica,sans-Serif" font-size="14.00">aus</text>
</g>
<!-- ARTIKEL&#45;&#45;WIRD_GEFERTIGT_AUS -->
<g id="edge13" class="edge">
<title>ARTIKEL&#45;&#45;WIRD_GEFERTIGT_AUS</title>
<path fill="none" stroke="black" d="M883.77,-146.63C928.5,-157.27 1005.32,-175.54 1060.24,-188.61"/>
<text text-anchor="middle" x="975.01" y="-173.8" font-family="Helvetica,sans-Serif" font-size="14.00">m</text>
</g>
<!-- BESTELLT&#45;&#45;AUFTRAG -->
<g id="edge2" class="edge">
<title>BESTELLT&#45;&#45;AUFTRAG</title>
<path fill="none" stroke="black" d="M237.2,-138C252.83,-138 269.21,-138 283.41,-138"/>
<text text-anchor="middle" x="260.01" y="-141.8" font-family="Helvetica,sans-Serif" font-size="14.00">n</text>
</g>
<!-- BESTEHT_AUS&#45;&#45;TAFELN -->
<g id="edge4" class="edge">
<title>BESTEHT_AUS&#45;&#45;TAFELN</title>
<path fill="none" stroke="black" d="M1174.91,-269.73C1198.37,-265.15 1226.86,-258.81 1251.85,-251 1279.34,-242.42 1309.4,-229.82 1331.67,-219.82"/>
<text text-anchor="middle" x="1274.85" y="-247.8" font-family="Helvetica,sans-Serif" font-size="14.00">n</text>
</g>
<!-- ENTHAELT&#45;&#45;ARTIKEL -->
<g id="edge6" class="edge">
<title>ENTHAELT&#45;&#45;ARTIKEL</title>
<path fill="none" stroke="black" d="M592.96,-138C656.64,-138 756.07,-138 809.18,-138"/>
<text text-anchor="middle" x="699.01" y="-141.8" font-family="Helvetica,sans-Serif" font-size="14.00">n</text>
</g>
<!-- WIRD_BEARBEITET_AUF&#45;&#45;ARBEITSSCHRITTKENNUNG -->
<g id="edge8" class="edge">
<title>WIRD_BEARBEITET_AUF&#45;&#45;ARBEITSSCHRITTKENNUNG</title>
<path fill="none" stroke="black" d="M655.33,-38C684.2,-38 714.73,-38 742.68,-38"/>
<text text-anchor="middle" x="699.01" y="-41.8" font-family="Helvetica,sans-Serif" font-size="14.00">n (0..n)</text>
</g>
<!-- DEFINIERT&#45;&#45;ARBEITSSCHRITT -->
<g id="edge10" class="edge">
<title>DEFINIERT&#45;&#45;ARBEITSSCHRITT</title>
<path fill="none" stroke="black" d="M1188.11,-39.83C1216.14,-41.13 1249.76,-43.31 1279.85,-47 1285.7,-47.72 1291.75,-48.59 1297.8,-49.54"/>
<text text-anchor="middle" x="1274.85" y="-50.8" font-family="Helvetica,sans-Serif" font-size="14.00">n</text>
</g>
<!-- HAT_ARBEITSSCHRITT&#45;&#45;ARBEITSSCHRITT -->
<g id="edge12" class="edge">
<title>HAT_ARBEITSSCHRITT&#45;&#45;ARBEITSSCHRITT</title>
<path fill="none" stroke="black" d="M1194.62,-83.77C1226.83,-79.85 1265.26,-75.17 1297.5,-71.25"/>
<text text-anchor="middle" x="1274.85" y="-78.8" font-family="Helvetica,sans-Serif" font-size="14.00">n</text>
</g>
<!-- WIRD_GEFERTIGT_AUS&#45;&#45;TAFELN -->
<g id="edge14" class="edge">
<title>WIRD_GEFERTIGT_AUS&#45;&#45;TAFELN</title>
<path fill="none" stroke="black" d="M1236.02,-204C1270.73,-204 1306.58,-204 1331.71,-204"/>
<text text-anchor="middle" x="1274.85" y="-207.8" font-family="Helvetica,sans-Serif" font-size="14.00">n</text>
</g>
<!-- HAUPT_MATERIAL&#45;&#45;ARTIKEL -->
<g id="edge16" class="edge">
<title>HAUPT_MATERIAL&#45;&#45;ARTIKEL</title>
<path fill="none" stroke="black" d="M1492.7,-151.97C1328.01,-148.4 993.83,-141.17 883.65,-138.78"/>
<text text-anchor="middle" x="1274.85" y="-151.8" font-family="Helvetica,sans-Serif" font-size="14.00">n</text>
</g>
</g>
</svg>
