<?xml version="1.0" encoding="UTF-8" standalone="no"?>
<!DOCTYPE svg PUBLIC "-//W3C//DTD SVG 1.1//EN"
 "http://www.w3.org/Graphics/SVG/1.1/DTD/svg11.dtd">
<!-- Generated by graphviz version 2.43.0 (0)
 -->
<!-- Title: LogicalDatabaseModel Pages: 1 -->
<svg width="994pt" height="1013pt"
 viewBox="0.00 0.00 994.00 1012.50" xmlns="http://www.w3.org/2000/svg" xmlns:xlink="http://www.w3.org/1999/xlink">
<g id="graph0" class="graph" transform="scale(1 1) rotate(0) translate(4 1008.5)">
<title>LogicalDatabaseModel</title>
<polygon fill="white" stroke="transparent" points="-4,4 -4,-1008.5 990,-1008.5 990,4 -4,4"/>
<!-- KUNDE -->
<g id="node1" class="node">
<title>KUNDE</title>
<polygon fill="lightblue" stroke="transparent" points="839,-580 839,-605 961,-605 961,-580 839,-580"/>
<polygon fill="none" stroke="black" points="839,-580 839,-605 961,-605 961,-580 839,-580"/>
<text text-anchor="start" x="872.5" y="-589.8" font-family="Helvetica,sans-Serif" font-weight="bold" font-size="14.00">KUNDE</text>
<polygon fill="none" stroke="black" points="839,-555 839,-580 961,-580 961,-555 839,-555"/>
<text text-anchor="start" x="851" y="-564.8" font-family="Helvetica,sans-Serif" text-decoration="underline" font-size="14.00">ID_Kunde (PK)</text>
<polygon fill="none" stroke="black" points="839,-530 839,-555 961,-555 961,-530 839,-530"/>
<text text-anchor="start" x="854" y="-538.8" font-family="Helvetica,sans-Serif" font-size="14.00">Kundenname</text>
<polygon fill="none" stroke="black" points="839,-505 839,-530 961,-530 961,-505 839,-505"/>
<text text-anchor="start" x="844" y="-513.8" font-family="Helvetica,sans-Serif" font-size="14.00">Kundennummer</text>
<polygon fill="none" stroke="black" points="839,-480 839,-505 961,-505 961,-480 839,-480"/>
<text text-anchor="start" x="855" y="-488.8" font-family="Helvetica,sans-Serif" font-size="14.00">Versandzone</text>
</g>
<!-- WERKSTOFF -->
<g id="node2" class="node">
<title>WERKSTOFF</title>
<polygon fill="lightblue" stroke="transparent" points="835,-355 835,-380 966,-380 966,-355 835,-355"/>
<polygon fill="none" stroke="black" points="835,-355 835,-380 966,-380 966,-355 835,-355"/>
<text text-anchor="start" x="851.5" y="-364.8" font-family="Helvetica,sans-Serif" font-weight="bold" font-size="14.00">WERKSTOFF</text>
<polygon fill="none" stroke="black" points="835,-330 835,-355 966,-355 966,-330 835,-330"/>
<text text-anchor="start" x="840" y="-339.8" font-family="Helvetica,sans-Serif" text-decoration="underline" font-size="14.00">ID_Werkstoff (PK)</text>
<polygon fill="none" stroke="black" points="835,-305 835,-330 966,-330 966,-305 835,-305"/>
<text text-anchor="start" x="867" y="-313.8" font-family="Helvetica,sans-Serif" font-size="14.00">Werkstoff</text>
<polygon fill="none" stroke="black" points="835,-280 835,-305 966,-305 966,-280 835,-280"/>
<text text-anchor="start" x="856" y="-288.8" font-family="Helvetica,sans-Serif" font-size="14.00">Werkstofftyp</text>
<polygon fill="none" stroke="black" points="835,-255 835,-280 966,-280 966,-255 835,-255"/>
<text text-anchor="start" x="846.5" y="-263.8" font-family="Helvetica,sans-Serif" font-size="14.00">Werkstoffspreis</text>
<polygon fill="none" stroke="black" points="835,-230 835,-255 966,-255 966,-230 835,-230"/>
<text text-anchor="start" x="878" y="-238.8" font-family="Helvetica,sans-Serif" font-size="14.00">Dichte</text>
</g>
<!-- TAFELN -->
<g id="node3" class="node">
<title>TAFELN</title>
<polygon fill="lightblue" stroke="transparent" points="593.5,-505 593.5,-530 724.5,-530 724.5,-505 593.5,-505"/>
<polygon fill="none" stroke="black" points="593.5,-505 593.5,-530 724.5,-530 724.5,-505 593.5,-505"/>
<text text-anchor="start" x="629" y="-514.8" font-family="Helvetica,sans-Serif" font-weight="bold" font-size="14.00">TAFELN</text>
<polygon fill="none" stroke="black" points="593.5,-480 593.5,-505 724.5,-505 724.5,-480 593.5,-480"/>
<text text-anchor="start" x="616" y="-489.8" font-family="Helvetica,sans-Serif" text-decoration="underline" font-size="14.00">ID_Tafel (PK)</text>
<polygon fill="none" stroke="black" points="593.5,-455 593.5,-480 724.5,-480 724.5,-455 593.5,-455"/>
<text text-anchor="start" x="622" y="-463.8" font-family="Helvetica,sans-Serif" font-size="14.00">TafelLänge</text>
<polygon fill="none" stroke="black" points="593.5,-430 593.5,-455 724.5,-455 724.5,-430 593.5,-430"/>
<text text-anchor="start" x="622.5" y="-438.8" font-family="Helvetica,sans-Serif" font-size="14.00">TafelBreite</text>
<polygon fill="none" stroke="black" points="593.5,-405 593.5,-430 724.5,-430 724.5,-405 593.5,-405"/>
<text text-anchor="start" x="640" y="-413.8" font-family="Helvetica,sans-Serif" font-size="14.00">Dicke</text>
<polygon fill="none" stroke="black" points="593.5,-380 593.5,-405 724.5,-405 724.5,-380 593.5,-380"/>
<text text-anchor="start" x="620.5" y="-388.8" font-family="Helvetica,sans-Serif" font-size="14.00">Einkauf_Kg</text>
<polygon fill="none" stroke="black" points="593.5,-355 593.5,-380 724.5,-380 724.5,-355 593.5,-355"/>
<text text-anchor="start" x="631" y="-363.8" font-family="Helvetica,sans-Serif" font-size="14.00">Gedreht</text>
<polygon fill="none" stroke="black" points="593.5,-330 593.5,-355 724.5,-355 724.5,-330 593.5,-330"/>
<text text-anchor="start" x="598.5" y="-338.8" font-family="Helvetica,sans-Serif" font-size="14.00">Werkstoff_ID (FK)</text>
</g>
<!-- TAFELN&#45;&gt;WERKSTOFF -->
<g id="edge1" class="edge">
<title>TAFELN:fk_werkstoff&#45;&gt;WERKSTOFF:pk</title>
<path fill="none" stroke="black" d="M735.67,-342.02C775.71,-342.14 789.35,-343 834,-343"/>
<polygon fill="black" stroke="black" points="735.5,-342.02 725.51,-337.5 730.5,-342.01 725.5,-342 725.5,-342 725.5,-342 730.5,-342.01 725.49,-346.5 735.5,-342.02 735.5,-342.02"/>
</g>
<!-- AUFTRAG -->
<g id="node4" class="node">
<title>AUFTRAG</title>
<polygon fill="lightblue" stroke="transparent" points="597.5,-731 597.5,-756 720.5,-756 720.5,-731 597.5,-731"/>
<polygon fill="none" stroke="black" points="597.5,-731 597.5,-756 720.5,-756 720.5,-731 597.5,-731"/>
<text text-anchor="start" x="622" y="-740.8" font-family="Helvetica,sans-Serif" font-weight="bold" font-size="14.00">AUFTRAG</text>
<polygon fill="none" stroke="black" points="597.5,-706 597.5,-731 720.5,-731 720.5,-706 597.5,-706"/>
<text text-anchor="start" x="602.5" y="-715.8" font-family="Helvetica,sans-Serif" text-decoration="underline" font-size="14.00">ID_Angebot (PK)</text>
<polygon fill="none" stroke="black" points="597.5,-681 597.5,-706 720.5,-706 720.5,-681 597.5,-681"/>
<text text-anchor="start" x="629.5" y="-689.8" font-family="Helvetica,sans-Serif" font-size="14.00">Angebot</text>
<polygon fill="none" stroke="black" points="597.5,-656 597.5,-681 720.5,-681 720.5,-656 597.5,-656"/>
<text text-anchor="start" x="642.5" y="-664.8" font-family="Helvetica,sans-Serif" font-size="14.00">Date</text>
<polygon fill="none" stroke="black" points="597.5,-631 597.5,-656 720.5,-656 720.5,-631 597.5,-631"/>
<text text-anchor="start" x="625.5" y="-639.8" font-family="Helvetica,sans-Serif" font-size="14.00">Ges_Preis</text>
<polygon fill="none" stroke="black" points="597.5,-606 597.5,-631 720.5,-631 720.5,-606 597.5,-606"/>
<text text-anchor="start" x="628.5" y="-614.8" font-family="Helvetica,sans-Serif" font-size="14.00">Ges_Zeit</text>
<polygon fill="none" stroke="black" points="597.5,-581 597.5,-606 720.5,-606 720.5,-581 597.5,-581"/>
<text text-anchor="start" x="621.5" y="-589.8" font-family="Helvetica,sans-Serif" font-size="14.00">ErstelltVon</text>
<polygon fill="none" stroke="black" points="597.5,-556 597.5,-581 720.5,-581 720.5,-556 597.5,-556"/>
<text text-anchor="start" x="610" y="-564.8" font-family="Helvetica,sans-Serif" font-size="14.00">Kunde_ID (FK)</text>
</g>
<!-- AUFTRAG&#45;&gt;KUNDE -->
<g id="edge2" class="edge">
<title>AUFTRAG:fk_kunde&#45;&gt;KUNDE:pk</title>
<path fill="none" stroke="black" d="M731.6,-568C775.23,-568 789.76,-568 838,-568"/>
<polygon fill="black" stroke="black" points="731.5,-568 721.5,-563.5 726.5,-568 721.5,-568 721.5,-568 721.5,-568 726.5,-568 721.5,-572.5 731.5,-568 731.5,-568"/>
</g>
<!-- Maschine -->
<g id="node5" class="node">
<title>Maschine</title>
<polygon fill="lightblue" stroke="transparent" points="822,-179 822,-204 978,-204 978,-179 822,-179"/>
<polygon fill="none" stroke="black" points="822,-179 822,-204 978,-204 978,-179 822,-179"/>
<text text-anchor="start" x="862.5" y="-188.8" font-family="Helvetica,sans-Serif" font-weight="bold" font-size="14.00">Maschine</text>
<polygon fill="none" stroke="black" points="822,-154 822,-179 978,-179 978,-154 822,-154"/>
<text text-anchor="start" x="840" y="-163.8" font-family="Helvetica,sans-Serif" text-decoration="underline" font-size="14.00">ID_Maschine (PK)</text>
<polygon fill="none" stroke="black" points="822,-129 822,-154 978,-154 978,-129 822,-129"/>
<text text-anchor="start" x="843" y="-137.8" font-family="Helvetica,sans-Serif" font-size="14.00">Maschinenname</text>
<polygon fill="none" stroke="black" points="822,-104 822,-129 978,-129 978,-104 822,-104"/>
<text text-anchor="start" x="842" y="-112.8" font-family="Helvetica,sans-Serif" font-size="14.00">Bearbeitungstyp</text>
<polygon fill="none" stroke="black" points="822,-79 822,-104 978,-104 978,-79 822,-79"/>
<text text-anchor="start" x="865" y="-87.8" font-family="Helvetica,sans-Serif" font-size="14.00">Verschnitt</text>
<polygon fill="none" stroke="black" points="822,-54 822,-79 978,-79 978,-54 822,-54"/>
<text text-anchor="start" x="867.5" y="-62.8" font-family="Helvetica,sans-Serif" font-size="14.00">Vorschub</text>
<polygon fill="none" stroke="black" points="822,-29 822,-54 978,-54 978,-29 822,-29"/>
<text text-anchor="start" x="827" y="-37.8" font-family="Helvetica,sans-Serif" font-size="14.00">AbdampfenVorschub</text>
<polygon fill="none" stroke="black" points="822,-4 822,-29 978,-29 978,-4 822,-4"/>
<text text-anchor="start" x="859" y="-12.8" font-family="Helvetica,sans-Serif" font-size="14.00">Abdampfen</text>
</g>
<!-- ARBEITSSCHRITTKENNUNG -->
<g id="node6" class="node">
<title>ARBEITSSCHRITTKENNUNG</title>
<polygon fill="lightblue" stroke="transparent" points="547.5,-257 547.5,-282 770.5,-282 770.5,-257 547.5,-257"/>
<polygon fill="none" stroke="black" points="547.5,-257 547.5,-282 770.5,-282 770.5,-257 547.5,-257"/>
<text text-anchor="start" x="552.5" y="-266.8" font-family="Helvetica,sans-Serif" font-weight="bold" font-size="14.00">ARBEITSSCHRITTKENNUNG</text>
<polygon fill="none" stroke="black" points="547.5,-232 547.5,-257 770.5,-257 770.5,-232 547.5,-232"/>
<text text-anchor="start" x="554.5" y="-241.8" font-family="Helvetica,sans-Serif" text-decoration="underline" font-size="14.00">ID_Arbeitsschrittkennung (PK)</text>
<polygon fill="none" stroke="black" points="547.5,-207 547.5,-232 770.5,-232 770.5,-207 547.5,-207"/>
<text text-anchor="start" x="612" y="-215.8" font-family="Helvetica,sans-Serif" font-size="14.00">Arbeitsschritt</text>
<polygon fill="none" stroke="black" points="547.5,-182 547.5,-207 770.5,-207 770.5,-182 547.5,-182"/>
<text text-anchor="start" x="633" y="-190.8" font-family="Helvetica,sans-Serif" font-size="14.00">Kuerzel</text>
<polygon fill="none" stroke="black" points="547.5,-157 547.5,-182 770.5,-182 770.5,-157 547.5,-157"/>
<text text-anchor="start" x="599" y="-165.8" font-family="Helvetica,sans-Serif" font-size="14.00">Maschine_ID (FK)</text>
</g>
<!-- ARBEITSSCHRITTKENNUNG&#45;&gt;Maschine -->
<g id="edge3" class="edge">
<title>ARBEITSSCHRITTKENNUNG:fk_maschine&#45;&gt;Maschine:pk</title>
<path fill="none" stroke="black" d="M781.55,-168.84C795.89,-168.37 802.77,-167 821,-167"/>
<polygon fill="black" stroke="black" points="781.5,-168.84 771.43,-164.5 776.5,-168.92 771.5,-169 771.5,-169 771.5,-169 776.5,-168.92 771.57,-173.5 781.5,-168.84 781.5,-168.84"/>
</g>
<!-- ARBEITSSCHRITT -->
<g id="node7" class="node">
<title>ARBEITSSCHRITT</title>
<polygon fill="lightblue" stroke="transparent" points="276.5,-434 276.5,-459 495.5,-459 495.5,-434 276.5,-434"/>
<polygon fill="none" stroke="black" points="276.5,-434 276.5,-459 495.5,-459 495.5,-434 276.5,-434"/>
<text text-anchor="start" x="319" y="-443.8" font-family="Helvetica,sans-Serif" font-weight="bold" font-size="14.00">ARBEITSSCHRITT</text>
<polygon fill="none" stroke="black" points="276.5,-409 276.5,-434 495.5,-434 495.5,-409 276.5,-409"/>
<text text-anchor="start" x="312" y="-418.8" font-family="Helvetica,sans-Serif" text-decoration="underline" font-size="14.00">ID_Arbeitsschritt (PK)</text>
<polygon fill="none" stroke="black" points="276.5,-384 276.5,-409 495.5,-409 495.5,-384 276.5,-384"/>
<text text-anchor="start" x="357.5" y="-392.8" font-family="Helvetica,sans-Serif" font-size="14.00">Ruesten</text>
<polygon fill="none" stroke="black" points="276.5,-359 276.5,-384 495.5,-384 495.5,-359 276.5,-359"/>
<text text-anchor="start" x="327" y="-367.8" font-family="Helvetica,sans-Serif" font-size="14.00">Bearbeitungszeit</text>
<polygon fill="none" stroke="black" points="276.5,-334 276.5,-359 495.5,-359 495.5,-334 276.5,-334"/>
<text text-anchor="start" x="346.5" y="-342.8" font-family="Helvetica,sans-Serif" font-size="14.00">Gesamtzeit</text>
<polygon fill="none" stroke="black" points="276.5,-309 276.5,-334 495.5,-334 495.5,-309 276.5,-309"/>
<text text-anchor="start" x="364.5" y="-317.8" font-family="Helvetica,sans-Serif" font-size="14.00">Marge</text>
<polygon fill="none" stroke="black" points="276.5,-284 276.5,-309 495.5,-309 495.5,-284 276.5,-284"/>
<text text-anchor="start" x="314" y="-292.8" font-family="Helvetica,sans-Serif" font-size="14.00">StundensatzRuesten</text>
<polygon fill="none" stroke="black" points="276.5,-259 276.5,-284 495.5,-284 495.5,-259 276.5,-259"/>
<text text-anchor="start" x="307.5" y="-267.8" font-family="Helvetica,sans-Serif" font-size="14.00">StundensatzOperation</text>
<polygon fill="none" stroke="black" points="276.5,-234 276.5,-259 495.5,-259 495.5,-234 276.5,-234"/>
<text text-anchor="start" x="281.5" y="-242.8" font-family="Helvetica,sans-Serif" font-size="14.00">Arbeitsschrittkennung_ID (FK)</text>
</g>
<!-- ARBEITSSCHRITT&#45;&gt;ARBEITSSCHRITTKENNUNG -->
<g id="edge4" class="edge">
<title>ARBEITSSCHRITT:fk_kennung&#45;&gt;ARBEITSSCHRITTKENNUNG:pk</title>
<path fill="none" stroke="black" d="M506.65,-245.92C521.13,-245.69 528.09,-245 546.5,-245"/>
<polygon fill="black" stroke="black" points="506.5,-245.92 496.47,-241.5 501.5,-245.96 496.5,-246 496.5,-246 496.5,-246 501.5,-245.96 496.53,-250.5 506.5,-245.92 506.5,-245.92"/>
</g>
<!-- ARTIKEL -->
<g id="node8" class="node">
<title>ARTIKEL</title>
<polygon fill="lightblue" stroke="transparent" points="324.5,-975 324.5,-1000 447.5,-1000 447.5,-975 324.5,-975"/>
<polygon fill="none" stroke="black" points="324.5,-975 324.5,-1000 447.5,-1000 447.5,-975 324.5,-975"/>
<text text-anchor="start" x="353" y="-984.8" font-family="Helvetica,sans-Serif" font-weight="bold" font-size="14.00">ARTIKEL</text>
<polygon fill="none" stroke="black" points="324.5,-950 324.5,-975 447.5,-975 447.5,-950 324.5,-950"/>
<text text-anchor="start" x="336.5" y="-959.8" font-family="Helvetica,sans-Serif" text-decoration="underline" font-size="14.00">ID_Artikel (PK)</text>
<polygon fill="none" stroke="black" points="324.5,-925 324.5,-950 447.5,-950 447.5,-925 324.5,-925"/>
<text text-anchor="start" x="334" y="-933.8" font-family="Helvetica,sans-Serif" font-size="14.00">Artikelnummer</text>
<polygon fill="none" stroke="black" points="324.5,-900 324.5,-925 447.5,-925 447.5,-900 324.5,-900"/>
<text text-anchor="start" x="373.5" y="-908.8" font-family="Helvetica,sans-Serif" font-size="14.00">Pos</text>
<polygon fill="none" stroke="black" points="324.5,-875 324.5,-900 447.5,-900 447.5,-875 324.5,-875"/>
<text text-anchor="start" x="332" y="-883.8" font-family="Helvetica,sans-Serif" font-size="14.00">BenötigteTafeln</text>
<polygon fill="none" stroke="black" points="324.5,-850 324.5,-875 447.5,-875 447.5,-850 324.5,-850"/>
<text text-anchor="start" x="362.5" y="-858.8" font-family="Helvetica,sans-Serif" font-size="14.00">Menge</text>
<polygon fill="none" stroke="black" points="324.5,-825 324.5,-850 447.5,-850 447.5,-825 324.5,-825"/>
<text text-anchor="start" x="350" y="-833.8" font-family="Helvetica,sans-Serif" font-size="14.00">Artikeltext</text>
<polygon fill="none" stroke="black" points="324.5,-800 324.5,-825 447.5,-825 447.5,-800 324.5,-800"/>
<text text-anchor="start" x="349.5" y="-808.8" font-family="Helvetica,sans-Serif" font-size="14.00">Stückpreis</text>
<polygon fill="none" stroke="black" points="324.5,-775 324.5,-800 447.5,-800 447.5,-775 324.5,-775"/>
<text text-anchor="start" x="346.5" y="-783.8" font-family="Helvetica,sans-Serif" font-size="14.00">Ben_Fläche</text>
<polygon fill="none" stroke="black" points="324.5,-750 324.5,-775 447.5,-775 447.5,-750 324.5,-750"/>
<text text-anchor="start" x="358" y="-758.8" font-family="Helvetica,sans-Serif" font-size="14.00">Gewicht</text>
<polygon fill="none" stroke="black" points="324.5,-725 324.5,-750 447.5,-750 447.5,-725 324.5,-725"/>
<text text-anchor="start" x="358" y="-733.8" font-family="Helvetica,sans-Serif" font-size="14.00">Umfang</text>
<polygon fill="none" stroke="black" points="324.5,-700 324.5,-725 447.5,-725 447.5,-700 324.5,-700"/>
<text text-anchor="start" x="364.5" y="-708.8" font-family="Helvetica,sans-Serif" font-size="14.00">Länge</text>
<polygon fill="none" stroke="black" points="324.5,-675 324.5,-700 447.5,-700 447.5,-675 324.5,-675"/>
<text text-anchor="start" x="365.5" y="-683.8" font-family="Helvetica,sans-Serif" font-size="14.00">Breite</text>
<polygon fill="none" stroke="black" points="324.5,-650 324.5,-675 447.5,-675 447.5,-650 324.5,-650"/>
<text text-anchor="start" x="348" y="-658.8" font-family="Helvetica,sans-Serif" font-size="14.00">Symmetrie</text>
<polygon fill="none" stroke="black" points="324.5,-625 324.5,-650 447.5,-650 447.5,-625 324.5,-625"/>
<text text-anchor="start" x="372.5" y="-633.8" font-family="Helvetica,sans-Serif" font-size="14.00">Bild</text>
<polygon fill="none" stroke="black" points="324.5,-600 324.5,-625 447.5,-625 447.5,-600 324.5,-600"/>
<text text-anchor="start" x="345.5" y="-608.8" font-family="Helvetica,sans-Serif" font-size="14.00">Kommentar</text>
<polygon fill="none" stroke="black" points="324.5,-575 324.5,-600 447.5,-600 447.5,-575 324.5,-575"/>
<text text-anchor="start" x="360" y="-583.8" font-family="Helvetica,sans-Serif" font-size="14.00">Params</text>
<polygon fill="none" stroke="black" points="324.5,-550 324.5,-575 447.5,-575 447.5,-550 324.5,-550"/>
<text text-anchor="start" x="329.5" y="-558.8" font-family="Helvetica,sans-Serif" font-size="14.00">Angebot_ID (FK)</text>
<polygon fill="none" stroke="black" points="324.5,-525 324.5,-550 447.5,-550 447.5,-525 324.5,-525"/>
<text text-anchor="start" x="343" y="-533.8" font-family="Helvetica,sans-Serif" font-size="14.00">Tafel_ID (FK)</text>
</g>
<!-- ARTIKEL&#45;&gt;TAFELN -->
<g id="edge6" class="edge">
<title>ARTIKEL:fk_tafel&#45;&gt;TAFELN:pk</title>
<path fill="none" stroke="black" d="M458.63,-536.65C516.65,-532.48 529.11,-493 592.5,-493"/>
<polygon fill="black" stroke="black" points="458.49,-536.65 448.34,-532.5 453.5,-536.83 448.5,-537 448.5,-537 448.5,-537 453.5,-536.83 448.66,-541.5 458.49,-536.65 458.49,-536.65"/>
</g>
<!-- ARTIKEL&#45;&gt;AUFTRAG -->
<g id="edge5" class="edge">
<title>ARTIKEL:fk_angebot&#45;&gt;AUFTRAG:pk</title>
<path fill="none" stroke="black" d="M458.61,-562.63C541.34,-573.44 504.16,-719 596.5,-719"/>
<polygon fill="black" stroke="black" points="458.48,-562.62 448.78,-557.51 453.49,-562.31 448.5,-562 448.5,-562 448.5,-562 453.49,-562.31 448.22,-566.49 458.48,-562.62 458.48,-562.62"/>
</g>
<!-- ARTIKEL_ARBEITSSCHRITT -->
<g id="node9" class="node">
<title>ARTIKEL_ARBEITSSCHRITT</title>
<polygon fill="lightblue" stroke="transparent" points="8,-582 8,-607 224,-607 224,-582 8,-582"/>
<polygon fill="none" stroke="black" points="8,-582 8,-607 224,-607 224,-582 8,-582"/>
<text text-anchor="start" x="13" y="-591.8" font-family="Helvetica,sans-Serif" font-weight="bold" font-size="14.00">ARTIKEL_ARBEITSSCHRITT</text>
<polygon fill="none" stroke="black" points="8,-557 8,-582 224,-582 224,-557 8,-557"/>
<text text-anchor="start" x="16.5" y="-566.8" font-family="Helvetica,sans-Serif" text-decoration="underline" font-size="14.00">ID_Artikel_Arbeitsschritt (PK)</text>
<polygon fill="none" stroke="black" points="8,-532 8,-557 224,-557 224,-532 8,-532"/>
<text text-anchor="start" x="66.5" y="-540.8" font-family="Helvetica,sans-Serif" font-size="14.00">Artikel_ID (FK)</text>
<polygon fill="none" stroke="black" points="8,-507 8,-532 224,-532 224,-507 8,-507"/>
<text text-anchor="start" x="42" y="-515.8" font-family="Helvetica,sans-Serif" font-size="14.00">Arbeitsschritt_ID (FK)</text>
</g>
<!-- ARTIKEL_ARBEITSSCHRITT&#45;&gt;ARBEITSSCHRITT -->
<g id="edge8" class="edge">
<title>ARTIKEL_ARBEITSSCHRITT:fk_schritt&#45;&gt;ARBEITSSCHRITT:pk</title>
<path fill="none" stroke="black" d="M235.14,-517.15C266.58,-503.74 230.88,-422 275.5,-422"/>
<polygon fill="black" stroke="black" points="234.84,-517.2 224.19,-514.57 229.92,-518.1 225,-519 225,-519 225,-519 229.92,-518.1 225.81,-523.43 234.84,-517.2 234.84,-517.2"/>
</g>
<!-- ARTIKEL_ARBEITSSCHRITT&#45;&gt;ARTIKEL -->
<g id="edge7" class="edge">
<title>ARTIKEL_ARBEITSSCHRITT:fk_artikel&#45;&gt;ARTIKEL:pk</title>
<path fill="none" stroke="black" d="M235.16,-544.43C405.92,-559.4 135.75,-963 323.5,-963"/>
<polygon fill="black" stroke="black" points="234.99,-544.42 225.19,-539.5 230,-544.21 225,-544 225,-544 225,-544 230,-544.21 224.81,-548.5 234.99,-544.42 234.99,-544.42"/>
</g>
<!-- ARTIKEL_TAFELN_MM -->
<g id="node10" class="node">
<title>ARTIKEL_TAFELN_MM</title>
<polygon fill="lightblue" stroke="transparent" points="28,-878 28,-903 205,-903 205,-878 28,-878"/>
<polygon fill="none" stroke="black" points="28,-878 28,-903 205,-903 205,-878 28,-878"/>
<text text-anchor="start" x="33" y="-887.8" font-family="Helvetica,sans-Serif" font-weight="bold" font-size="14.00">ARTIKEL_TAFELN_MM</text>
<polygon fill="none" stroke="black" points="28,-853 28,-878 205,-878 205,-853 28,-853"/>
<text text-anchor="start" x="54" y="-862.8" font-family="Helvetica,sans-Serif" text-decoration="underline" font-size="14.00">Artikel_ID (PK, FK)</text>
<polygon fill="none" stroke="black" points="28,-828 28,-853 205,-853 205,-828 28,-828"/>
<text text-anchor="start" x="60.5" y="-837.8" font-family="Helvetica,sans-Serif" text-decoration="underline" font-size="14.00">Tafel_ID (PK, FK)</text>
</g>
<!-- ARTIKEL_TAFELN_MM&#45;&gt;TAFELN -->
<g id="edge10" class="edge">
<title>ARTIKEL_TAFELN_MM:fk_tafel&#45;&gt;TAFELN:pk</title>
<path fill="none" stroke="black" d="M216.23,-839.6C344.49,-828.89 159.74,-608.43 268,-513 322.2,-465.23 520.25,-493 592.5,-493"/>
<polygon fill="black" stroke="black" points="215.99,-839.6 205.82,-835.5 211,-839.8 206,-840 206,-840 206,-840 211,-839.8 206.18,-844.5 215.99,-839.6 215.99,-839.6"/>
</g>
<!-- ARTIKEL_TAFELN_MM&#45;&gt;ARTIKEL -->
<g id="edge9" class="edge">
<title>ARTIKEL_TAFELN_MM:fk_artikel&#45;&gt;ARTIKEL:pk</title>
<path fill="none" stroke="black" d="M216.06,-865.79C272.29,-875.06 259.08,-963 323.5,-963"/>
<polygon fill="black" stroke="black" points="215.97,-865.78 206.35,-860.51 210.98,-865.39 206,-865 206,-865 206,-865 210.98,-865.39 205.65,-869.49 215.97,-865.78 215.97,-865.78"/>
</g>
</g>
</svg>
